<mxfile host="Electron" agent="Mozilla/5.0 (Windows NT 10.0; Win64; x64) AppleWebKit/537.36 (KHTML, like Gecko) draw.io/24.7.5 Chrome/126.0.6478.183 Electron/31.3.0 Safari/537.36" version="24.7.5">
  <diagram name="Stránka-1" id="x27HMtjat7XtUllMODR1">
    <mxGraphModel dx="1221" dy="823" grid="1" gridSize="10" guides="1" tooltips="1" connect="1" arrows="1" fold="1" page="1" pageScale="1" pageWidth="827" pageHeight="1169" math="0" shadow="0">
      <root>
        <mxCell id="0" />
        <mxCell id="1" parent="0" />
        <mxCell id="9KGqLRv9-ex1z_mnn_UG-2" value="" style="rounded=0;whiteSpace=wrap;html=1;fillColor=none;strokeColor=#808080;strokeWidth=2;" vertex="1" parent="1">
          <mxGeometry x="120" y="200" width="600" height="200" as="geometry" />
        </mxCell>
        <mxCell id="9KGqLRv9-ex1z_mnn_UG-19" value="" style="rounded=0;whiteSpace=wrap;html=1;fillColor=none;strokeColor=#4D4D4D;strokeWidth=2;" vertex="1" parent="1">
          <mxGeometry x="130" y="210" width="580" height="100" as="geometry" />
        </mxCell>
        <mxCell id="9KGqLRv9-ex1z_mnn_UG-1" value="Ruian VFR" style="rounded=1;whiteSpace=wrap;html=1;strokeWidth=2;strokeColor=#FF8000;gradientColor=none;" vertex="1" parent="1">
          <mxGeometry x="160" y="40" width="120" height="80" as="geometry" />
        </mxCell>
        <mxCell id="9KGqLRv9-ex1z_mnn_UG-3" value="Stahování" style="rounded=0;whiteSpace=wrap;html=1;fillColor=default;strokeColor=#999999;fontSize=13;labelBackgroundColor=default;fontColor=#999999;" vertex="1" parent="1">
          <mxGeometry x="160" y="240" width="120" height="40" as="geometry" />
        </mxCell>
        <mxCell id="9KGqLRv9-ex1z_mnn_UG-14" style="edgeStyle=orthogonalEdgeStyle;rounded=0;orthogonalLoop=1;jettySize=auto;html=1;strokeColor=#00CC00;strokeWidth=2;endArrow=openThin;endFill=0;" edge="1" parent="1" source="9KGqLRv9-ex1z_mnn_UG-4" target="9KGqLRv9-ex1z_mnn_UG-5">
          <mxGeometry relative="1" as="geometry" />
        </mxCell>
        <mxCell id="9KGqLRv9-ex1z_mnn_UG-16" value="Objekty" style="edgeLabel;html=1;align=center;verticalAlign=middle;resizable=0;points=[];" vertex="1" connectable="0" parent="9KGqLRv9-ex1z_mnn_UG-14">
          <mxGeometry x="-0.1778" y="-2" relative="1" as="geometry">
            <mxPoint y="-2" as="offset" />
          </mxGeometry>
        </mxCell>
        <mxCell id="9KGqLRv9-ex1z_mnn_UG-36" value="Objekty" style="edgeLabel;html=1;align=center;verticalAlign=middle;resizable=0;points=[];fontSize=13;fontColor=#00CC00;fontStyle=2" vertex="1" connectable="0" parent="9KGqLRv9-ex1z_mnn_UG-14">
          <mxGeometry x="-0.1778" y="-2" relative="1" as="geometry">
            <mxPoint y="-2" as="offset" />
          </mxGeometry>
        </mxCell>
        <mxCell id="9KGqLRv9-ex1z_mnn_UG-4" value="Zpracování" style="rounded=0;whiteSpace=wrap;html=1;fillColor=default;strokeColor=#999999;fontSize=13;labelBackgroundColor=default;fontColor=#999999;" vertex="1" parent="1">
          <mxGeometry x="360" y="240" width="120" height="40" as="geometry" />
        </mxCell>
        <mxCell id="9KGqLRv9-ex1z_mnn_UG-5" value="JDBC" style="rounded=0;whiteSpace=wrap;html=1;fillColor=default;strokeColor=#999999;fontSize=13;labelBackgroundColor=default;fontColor=#999999;" vertex="1" parent="1">
          <mxGeometry x="560" y="240" width="120" height="40" as="geometry" />
        </mxCell>
        <mxCell id="9KGqLRv9-ex1z_mnn_UG-6" value="Databáze" style="shape=cylinder3;whiteSpace=wrap;html=1;boundedLbl=1;backgroundOutline=1;size=15;rounded=1;strokeColor=#FF8000;strokeWidth=2;align=center;verticalAlign=middle;fontFamily=Helvetica;fontSize=12;fontColor=default;fillColor=default;gradientColor=none;" vertex="1" parent="1">
          <mxGeometry x="560" y="40" width="120" height="120" as="geometry" />
        </mxCell>
        <mxCell id="9KGqLRv9-ex1z_mnn_UG-17" style="edgeStyle=orthogonalEdgeStyle;rounded=0;orthogonalLoop=1;jettySize=auto;html=1;exitX=0.5;exitY=0;exitDx=0;exitDy=0;entryX=0.5;entryY=1;entryDx=0;entryDy=0;entryPerimeter=0;strokeColor=#00CC00;strokeWidth=2;endArrow=openThin;endFill=0;" edge="1" parent="1" source="9KGqLRv9-ex1z_mnn_UG-5" target="9KGqLRv9-ex1z_mnn_UG-6">
          <mxGeometry relative="1" as="geometry" />
        </mxCell>
        <mxCell id="9KGqLRv9-ex1z_mnn_UG-20" value="Logování" style="rounded=0;whiteSpace=wrap;html=1;fillColor=default;strokeColor=#999999;fontSize=13;labelBackgroundColor=default;fontColor=#999999;" vertex="1" parent="1">
          <mxGeometry x="620" y="340" width="70" height="40" as="geometry" />
        </mxCell>
        <mxCell id="9KGqLRv9-ex1z_mnn_UG-24" style="edgeStyle=orthogonalEdgeStyle;rounded=0;orthogonalLoop=1;jettySize=auto;html=1;exitX=0.25;exitY=0;exitDx=0;exitDy=0;entryX=0.25;entryY=1;entryDx=0;entryDy=0;curved=1;strokeColor=#FF0000;strokeWidth=2;endArrow=classicThin;endFill=1;" edge="1" parent="1" source="9KGqLRv9-ex1z_mnn_UG-23" target="9KGqLRv9-ex1z_mnn_UG-3">
          <mxGeometry relative="1" as="geometry">
            <Array as="points" />
          </mxGeometry>
        </mxCell>
        <mxCell id="9KGqLRv9-ex1z_mnn_UG-23" value="Plánovač" style="rounded=0;whiteSpace=wrap;html=1;fillColor=default;strokeColor=#999999;fontSize=13;labelBackgroundColor=default;fontColor=#999999;" vertex="1" parent="1">
          <mxGeometry x="160" y="340" width="120" height="40" as="geometry" />
        </mxCell>
        <mxCell id="9KGqLRv9-ex1z_mnn_UG-26" style="edgeStyle=orthogonalEdgeStyle;rounded=0;orthogonalLoop=1;jettySize=auto;html=1;exitX=0;exitY=0.5;exitDx=0;exitDy=0;entryX=0.75;entryY=1;entryDx=0;entryDy=0;curved=1;strokeWidth=2;strokeColor=#000000;" edge="1" parent="1" source="9KGqLRv9-ex1z_mnn_UG-25" target="9KGqLRv9-ex1z_mnn_UG-23">
          <mxGeometry relative="1" as="geometry" />
        </mxCell>
        <mxCell id="9KGqLRv9-ex1z_mnn_UG-27" style="edgeStyle=orthogonalEdgeStyle;rounded=0;orthogonalLoop=1;jettySize=auto;html=1;strokeColor=#000000;strokeWidth=2;align=center;verticalAlign=middle;fontFamily=Helvetica;fontSize=11;fontColor=default;labelBackgroundColor=default;endArrow=classic;curved=1;" edge="1" parent="1" source="9KGqLRv9-ex1z_mnn_UG-25" target="9KGqLRv9-ex1z_mnn_UG-4">
          <mxGeometry relative="1" as="geometry" />
        </mxCell>
        <mxCell id="9KGqLRv9-ex1z_mnn_UG-29" style="edgeStyle=orthogonalEdgeStyle;rounded=0;orthogonalLoop=1;jettySize=auto;html=1;entryX=0.25;entryY=1;entryDx=0;entryDy=0;strokeColor=#000000;strokeWidth=2;align=center;verticalAlign=middle;fontFamily=Helvetica;fontSize=11;fontColor=default;labelBackgroundColor=default;endArrow=classic;curved=1;" edge="1" parent="1" source="9KGqLRv9-ex1z_mnn_UG-25" target="9KGqLRv9-ex1z_mnn_UG-5">
          <mxGeometry relative="1" as="geometry" />
        </mxCell>
        <mxCell id="9KGqLRv9-ex1z_mnn_UG-25" value="Konfigurace" style="rounded=0;whiteSpace=wrap;html=1;strokeColor=#000000;strokeWidth=3;" vertex="1" parent="1">
          <mxGeometry x="360" y="430" width="120" height="60" as="geometry" />
        </mxCell>
        <mxCell id="9KGqLRv9-ex1z_mnn_UG-28" style="edgeStyle=orthogonalEdgeStyle;rounded=0;orthogonalLoop=1;jettySize=auto;html=1;exitX=0.5;exitY=1;exitDx=0;exitDy=0;" edge="1" parent="1" source="9KGqLRv9-ex1z_mnn_UG-23" target="9KGqLRv9-ex1z_mnn_UG-23">
          <mxGeometry relative="1" as="geometry" />
        </mxCell>
        <mxCell id="9KGqLRv9-ex1z_mnn_UG-30" style="edgeStyle=orthogonalEdgeStyle;rounded=0;orthogonalLoop=1;jettySize=auto;html=1;exitX=0.25;exitY=0;exitDx=0;exitDy=0;entryX=0.25;entryY=1;entryDx=0;entryDy=0;strokeColor=#FF0000;strokeWidth=2;align=center;verticalAlign=middle;fontFamily=Helvetica;fontSize=11;fontColor=default;labelBackgroundColor=default;endArrow=classicThin;endFill=1;curved=1;" edge="1" parent="1">
          <mxGeometry relative="1" as="geometry">
            <mxPoint x="190" y="240" as="sourcePoint" />
            <mxPoint x="190" y="120" as="targetPoint" />
          </mxGeometry>
        </mxCell>
        <mxCell id="9KGqLRv9-ex1z_mnn_UG-32" style="edgeStyle=orthogonalEdgeStyle;rounded=0;orthogonalLoop=1;jettySize=auto;html=1;exitX=0.75;exitY=1;exitDx=0;exitDy=0;strokeColor=#00CC00;strokeWidth=2;endArrow=openThin;endFill=0;entryX=0.75;entryY=0;entryDx=0;entryDy=0;" edge="1" parent="1" target="9KGqLRv9-ex1z_mnn_UG-3">
          <mxGeometry relative="1" as="geometry">
            <mxPoint x="250" y="120" as="sourcePoint" />
            <mxPoint x="250" y="240" as="targetPoint" />
            <Array as="points" />
          </mxGeometry>
        </mxCell>
        <mxCell id="9KGqLRv9-ex1z_mnn_UG-33" value="Stažená&lt;br style=&quot;font-size: 13px;&quot;&gt;data" style="edgeLabel;html=1;align=center;verticalAlign=middle;resizable=0;points=[];fontSize=13;fontColor=#00CC00;fontStyle=2" vertex="1" connectable="0" parent="9KGqLRv9-ex1z_mnn_UG-32">
          <mxGeometry x="-0.2111" y="-3" relative="1" as="geometry">
            <mxPoint x="3" y="-7" as="offset" />
          </mxGeometry>
        </mxCell>
        <mxCell id="9KGqLRv9-ex1z_mnn_UG-34" style="edgeStyle=orthogonalEdgeStyle;rounded=0;orthogonalLoop=1;jettySize=auto;html=1;exitX=1;exitY=0.5;exitDx=0;exitDy=0;entryX=0;entryY=0.5;entryDx=0;entryDy=0;strokeColor=#00CC00;strokeWidth=2;endArrow=openThin;endFill=0;" edge="1" parent="1">
          <mxGeometry relative="1" as="geometry">
            <mxPoint x="280" y="260" as="sourcePoint" />
            <mxPoint x="360" y="260" as="targetPoint" />
            <Array as="points">
              <mxPoint x="310" y="260" />
              <mxPoint x="310" y="260" />
            </Array>
          </mxGeometry>
        </mxCell>
        <mxCell id="9KGqLRv9-ex1z_mnn_UG-35" value="Data" style="edgeLabel;html=1;align=center;verticalAlign=middle;resizable=0;points=[];fontSize=13;fontColor=#00CC00;fontStyle=2" vertex="1" connectable="0" parent="9KGqLRv9-ex1z_mnn_UG-34">
          <mxGeometry x="-0.1667" y="4" relative="1" as="geometry">
            <mxPoint x="7" y="4" as="offset" />
          </mxGeometry>
        </mxCell>
      </root>
    </mxGraphModel>
  </diagram>
</mxfile>
